# xmcd CD database file
#
# Track frame offsets:
#	150
#	19495
#	35060
#	52540
#	69970
#	93600
#	107935
#	121420
#	134855
#	152555
#	167475
#	183170
#	200175
#	214740
#	230675
#	245160
#
# Disc length: 3436 seconds
#
# Revision: 0
# Processed by: cddbd v1.5.2PL0 Copyright (c) Steve Scherf et al.
# Submitted via: CDex 1.51
#
DISCID=ec0d6a10
DTITLE=LBS Country Collection - Vol  #9
DYEAR=1900
DGENRE=Country
TTITLE0=Shaza Leigh and Rex Dallas - After All These Years
TTITLE1=Tom Maxwell - Gidgee After Rain
TTITLE2=Shane Hogan - A Mother's Love
TTITLE3=Brian Letton - Have You Paddled Down The Murray
TTITLE4=Kay Jeffery - The Other Side Of Life
TTITLE5=Ernie Constance - Walking With You
TTITLE6=Rick And Cathy - Country Woman
TTITLE7=Dean Perrett - A Tribute To A Horseman
TTITLE8=Sharon Heaslip - Princess In Leather And Lace
TTITLE9=Lindsay Waddington - Rainy Day Blues
TTITLE10=Howard Randall - Sunday Night
TTITLE11=Shaza Leigh - The Ghosts Of Bungendore
TTITLE12=Terry Gordon - One Last Look
TTITLE13=Charmaine Pout - Fresh Horses
TTITLE14=Rick Aitchison - The Disappearing Breed
TTITLE15=Lindsay Butler - Ku-Ring-Gai Chase
EXTD=
EXTT0=
EXTT1=
EXTT2=
EXTT3=
EXTT4=
EXTT5=
EXTT6=
EXTT7=
EXTT8=
EXTT9=
EXTT10=
EXTT11=
EXTT12=
EXTT13=
EXTT14=
EXTT15=
PLAYORDER=
